<svg width="770" height="1000" viewBox="0 0 770 1000" fill="none" xmlns="http://www.w3.org/2000/svg">
<path d="M683.624 509.624L207.874 784.299L207.874 234.95L683.624 509.624Z" stroke="#ebebeb"/>
<path d="M212.069 236.698C210.689 239.09 207.631 239.909 205.239 238.528C202.848 237.148 202.028 234.09 203.409 231.698C204.79 229.307 207.848 228.487 210.239 229.868C212.631 231.249 213.45 234.307 212.069 236.698Z" fill="#f2f2f2"/>
<path d="M212.226 786.426C210.846 788.818 207.788 789.637 205.396 788.256C203.005 786.876 202.185 783.818 203.566 781.426C204.947 779.035 208.005 778.215 210.396 779.596C212.788 780.977 213.607 784.035 212.226 786.426Z" fill="#f2f2f2"/>
<path d="M688.383 511.698C687.002 514.09 683.945 514.909 681.553 513.528C679.162 512.148 678.342 509.09 679.723 506.698C681.104 504.307 684.162 503.487 686.553 504.868C688.945 506.249 689.764 509.307 688.383 511.698Z" fill="#f2f2f2"/>
</svg>
